<svg width="217" height="78" viewBox="0 0 217 78" fill="none" xmlns="http://www.w3.org/2000/svg">
<path fill-rule="evenodd" clip-rule="evenodd" d="M164.5 25.5L121.167 44.0714L139.01 50.9902L145.929 68.8333L164.5 25.5ZM146.129 57.3646L142.359 47.6411L132.635 43.8708L156.25 33.7504L146.129 57.3646Z" fill="black"/>
<path d="M24.696 49.72C23.94 49.72 23.268 49.44 22.68 48.88C22.12 48.348 21.63 47.522 21.21 46.402C20.818 45.282 20.51 43.854 20.286 42.118C20.062 40.354 19.908 38.296 19.824 35.944H12.6C11.368 38.212 10.262 39.92 9.282 41.068C8.302 42.216 7.406 42.986 6.594 43.378C5.81 43.77 5.082 43.966 4.41 43.966C3.43 43.966 2.73 43.742 2.31 43.294C1.89 42.846 1.68 42.328 1.68 41.74C1.68 41.516 1.694 41.334 1.722 41.194C1.778 41.026 1.834 40.872 1.89 40.732C2.674 40.704 3.416 40.536 4.116 40.228C4.844 39.92 5.558 39.416 6.258 38.716C6.958 38.016 7.7 37.092 8.484 35.944C9.268 34.768 10.108 33.312 11.004 31.576C11.928 29.84 12.95 27.796 14.07 25.444C15.218 23.092 16.492 20.376 17.892 17.296L17.682 16.876C17.29 16.736 16.744 16.596 16.044 16.456C15.344 16.288 14.644 16.204 13.944 16.204C12.096 16.204 10.682 16.764 9.702 17.884C8.722 19.004 8.218 20.474 8.19 22.294C8.19 23.05 8.274 23.792 8.442 24.52C8.638 25.22 8.96 25.92 9.408 26.62C9.1 26.788 8.764 26.928 8.4 27.04C8.036 27.152 7.672 27.208 7.308 27.208C6.468 27.208 5.754 26.998 5.166 26.578C4.606 26.13 4.172 25.542 3.864 24.814C3.584 24.058 3.458 23.218 3.486 22.294C3.486 20.95 3.85 19.648 4.578 18.388C5.306 17.128 6.384 16.092 7.812 15.28C9.24 14.44 11.004 14.02 13.104 14.02C13.776 14.02 14.602 14.09 15.582 14.23C16.59 14.342 17.654 14.482 18.774 14.65C19.894 14.818 20.972 14.972 22.008 15.112C23.044 15.224 23.954 15.28 24.738 15.28C24.738 16.316 24.696 17.59 24.612 19.102C24.556 20.614 24.486 22.266 24.402 24.058C24.346 25.822 24.332 27.642 24.36 29.518C24.36 31.422 24.402 33.298 24.486 35.146C24.598 36.966 24.78 38.688 25.032 40.312C25.284 41.936 25.634 43.378 26.082 44.638C26.53 45.898 27.104 46.892 27.804 47.62C27.664 47.984 27.426 48.32 27.09 48.628C26.782 48.964 26.432 49.23 26.04 49.426C25.648 49.622 25.2 49.72 24.696 49.72ZM14.028 32.962H19.782C19.782 32.122 19.796 30.988 19.824 29.56C19.88 28.132 19.936 26.564 19.992 24.856C20.076 23.12 20.16 21.384 20.244 19.648H20.118C19.026 22.42 17.92 24.94 16.8 27.208C15.708 29.448 14.784 31.366 14.028 32.962ZM29.1907 43.504L33.3907 21.58L37.3807 21.076L36.8767 24.856C37.4087 23.652 38.2067 22.672 39.2707 21.916C40.3347 21.132 41.5247 20.74 42.8407 20.74C44.2127 20.74 45.2067 21.146 45.8227 21.958C46.4667 22.77 46.7887 23.764 46.7887 24.94C46.7887 26.34 46.4107 27.544 45.6547 28.552C44.8987 29.56 43.9047 30.064 42.6727 30.064C42.3367 30.064 41.9867 30.008 41.6227 29.896C41.2867 29.784 41.0207 29.588 40.8247 29.308C41.1887 28.832 41.4827 28.258 41.7067 27.586C41.9307 26.886 42.0427 26.256 42.0427 25.696C42.0427 25.164 41.9167 24.744 41.6647 24.436C41.4407 24.128 41.0627 23.974 40.5307 23.974C39.8587 23.974 39.2707 24.226 38.7667 24.73C38.2627 25.206 37.8427 25.822 37.5067 26.578C37.1707 27.334 36.8907 28.146 36.6667 29.014C36.4707 29.854 36.3027 30.624 36.1627 31.324L34.1047 43L29.1907 43.504ZM46.6633 43.504L50.8633 21.58L54.8533 21.076L54.3493 24.856C54.8813 23.652 55.6793 22.672 56.7433 21.916C57.8073 21.132 58.9973 20.74 60.3133 20.74C61.6853 20.74 62.6793 21.146 63.2953 21.958C63.9393 22.77 64.2613 23.764 64.2613 24.94C64.2613 26.34 63.8833 27.544 63.1273 28.552C62.3713 29.56 61.3773 30.064 60.1453 30.064C59.8093 30.064 59.4593 30.008 59.0953 29.896C58.7593 29.784 58.4933 29.588 58.2973 29.308C58.6613 28.832 58.9553 28.258 59.1793 27.586C59.4033 26.886 59.5153 26.256 59.5153 25.696C59.5153 25.164 59.3893 24.744 59.1373 24.436C58.9133 24.128 58.5353 23.974 58.0033 23.974C57.3313 23.974 56.7433 24.226 56.2393 24.73C55.7353 25.206 55.3153 25.822 54.9793 26.578C54.6433 27.334 54.3633 28.146 54.1393 29.014C53.9433 29.854 53.7753 30.624 53.6353 31.324L51.5773 43L46.6633 43.504ZM71.78 43.84C70.324 43.84 69.12 43.616 68.168 43.168C67.244 42.72 66.516 42.132 65.984 41.404C65.452 40.648 65.074 39.836 64.85 38.968C64.654 38.072 64.556 37.204 64.556 36.364C64.556 34.46 64.78 32.584 65.228 30.736C65.704 28.888 66.418 27.208 67.37 25.696C68.35 24.184 69.582 22.98 71.066 22.084C72.578 21.188 74.384 20.74 76.484 20.74C77.968 20.74 79.172 20.964 80.096 21.412C81.02 21.86 81.748 22.462 82.28 23.218C82.84 23.946 83.218 24.758 83.414 25.654C83.61 26.522 83.708 27.362 83.708 28.174C83.708 30.078 83.47 31.968 82.994 33.844C82.546 35.692 81.832 37.372 80.852 38.884C79.9 40.396 78.668 41.6 77.156 42.496C75.672 43.392 73.88 43.84 71.78 43.84ZM72.578 41.32C73.418 41.32 74.174 41.04 74.846 40.48C75.518 39.92 76.106 39.164 76.61 38.212C77.114 37.232 77.52 36.154 77.828 34.978C78.164 33.774 78.416 32.542 78.584 31.282C78.752 30.022 78.836 28.804 78.836 27.628C78.836 26.34 78.612 25.29 78.164 24.478C77.716 23.666 76.904 23.26 75.728 23.26C74.888 23.26 74.118 23.54 73.418 24.1C72.718 24.66 72.116 25.416 71.612 26.368C71.136 27.32 70.73 28.398 70.394 29.602C70.058 30.778 69.806 32.01 69.638 33.298C69.498 34.558 69.428 35.776 69.428 36.952C69.428 38.212 69.652 39.262 70.1 40.102C70.576 40.914 71.402 41.32 72.578 41.32ZM90.9874 43.63C90.7634 43.63 90.5114 43.616 90.2314 43.588C89.9794 43.56 89.7274 43.518 89.4754 43.462C89.4194 41.166 89.3494 38.94 89.2654 36.784C89.1814 34.628 89.0694 32.612 88.9294 30.736C88.7894 28.832 88.6074 27.18 88.3834 25.78C88.2434 24.66 88.0474 23.806 87.7954 23.218C87.5714 22.63 87.1934 22.182 86.6614 21.874C86.9414 21.51 87.3194 21.23 87.7954 21.034C88.2714 20.838 88.8734 20.74 89.6014 20.74C90.5254 20.74 91.2394 20.922 91.7434 21.286C92.2474 21.65 92.6254 22.21 92.8774 22.966C93.1294 23.694 93.2974 24.632 93.3814 25.78C93.4374 26.256 93.4794 26.872 93.5074 27.628C93.5354 28.356 93.5634 29.196 93.5914 30.148C93.6194 31.072 93.6334 32.108 93.6334 33.256C93.6334 34.432 93.6194 35.622 93.5914 36.826C93.5634 38.002 93.5634 39.052 93.5914 39.976C94.4034 38.968 95.1594 37.834 95.8594 36.574C96.5874 35.286 97.2314 33.942 97.7914 32.542C98.3514 31.142 98.7854 29.742 99.0934 28.342C99.4294 26.942 99.5974 25.612 99.5974 24.352C99.5974 23.932 99.5694 23.526 99.5134 23.134C99.4854 22.714 99.4154 22.294 99.3034 21.874C99.6114 21.622 100.003 21.37 100.479 21.118C100.983 20.866 101.529 20.74 102.117 20.74C102.789 20.74 103.265 20.908 103.545 21.244C103.853 21.58 104.049 22.014 104.133 22.546C104.245 23.078 104.315 23.666 104.343 24.31C104.399 24.954 104.441 25.71 104.469 26.578C104.497 27.446 104.511 28.342 104.511 29.266C104.539 30.19 104.553 31.072 104.553 31.912C104.581 32.724 104.595 33.424 104.595 34.012C104.595 34.796 104.581 35.692 104.553 36.7C104.553 37.708 104.539 38.8 104.511 39.976C105.323 38.968 106.093 37.834 106.821 36.574C107.549 35.286 108.179 33.942 108.711 32.542C109.271 31.142 109.705 29.742 110.013 28.342C110.349 26.942 110.517 25.612 110.517 24.352C110.517 23.932 110.489 23.526 110.433 23.134C110.405 22.714 110.335 22.294 110.223 21.874C110.559 21.538 111.021 21.272 111.609 21.076C112.197 20.852 112.785 20.74 113.373 20.74C113.961 20.74 114.423 20.852 114.759 21.076C115.123 21.272 115.375 21.58 115.515 22C115.655 22.392 115.725 22.896 115.725 23.512C115.725 24.408 115.585 25.402 115.305 26.494C115.025 27.586 114.647 28.72 114.171 29.896C113.695 31.044 113.149 32.15 112.533 33.214C111.945 34.278 111.343 35.258 110.727 36.154C109.803 37.47 108.851 38.688 107.871 39.808C106.919 40.928 105.925 41.838 104.889 42.538C103.881 43.238 102.803 43.588 101.655 43.588C101.459 43.588 101.249 43.574 101.025 43.546C100.829 43.546 100.633 43.518 100.437 43.462C100.437 41.838 100.395 40.382 100.311 39.094C100.255 37.806 100.199 36.546 100.143 35.314C98.8554 37.358 97.7214 38.996 96.7414 40.228C95.7614 41.432 94.8234 42.3 93.9274 42.832C93.0314 43.364 92.0514 43.63 90.9874 43.63ZM6.336 71.24C5.456 71.24 4.696 71.088 4.056 70.784C3.416 70.464 2.888 70.04 2.472 69.512C2.072 68.968 1.768 68.352 1.56 67.664C1.368 66.976 1.256 66.248 1.224 65.48C1.208 65.224 1.2 64.984 1.2 64.76C1.2 64.536 1.208 64.296 1.224 64.04C1.256 63.288 1.368 62.568 1.56 61.88C1.768 61.192 2.072 60.576 2.472 60.032C2.888 59.488 3.416 59.064 4.056 58.76C4.696 58.44 5.456 58.28 6.336 58.28C7.28 58.28 8.064 58.448 8.688 58.784C9.312 59.12 9.824 59.536 10.224 60.032V54.512C10.224 54.352 10.272 54.224 10.368 54.128C10.48 54.016 10.616 53.96 10.776 53.96H11.928C12.088 53.96 12.216 54.016 12.312 54.128C12.424 54.224 12.48 54.352 12.48 54.512V70.448C12.48 70.608 12.424 70.744 12.312 70.856C12.216 70.952 12.088 71 11.928 71H10.848C10.672 71 10.536 70.952 10.44 70.856C10.344 70.744 10.296 70.608 10.296 70.448V69.44C9.896 69.952 9.376 70.384 8.736 70.736C8.096 71.072 7.296 71.24 6.336 71.24ZM6.84 69.296C7.64 69.296 8.28 69.112 8.76 68.744C9.24 68.376 9.6 67.912 9.84 67.352C10.08 66.776 10.208 66.192 10.224 65.6C10.24 65.344 10.248 65.04 10.248 64.688C10.248 64.32 10.24 64.008 10.224 63.752C10.208 63.192 10.072 62.64 9.816 62.096C9.576 61.552 9.208 61.104 8.712 60.752C8.232 60.4 7.608 60.224 6.84 60.224C6.024 60.224 5.376 60.408 4.896 60.776C4.416 61.128 4.072 61.6 3.864 62.192C3.656 62.768 3.536 63.392 3.504 64.064C3.488 64.528 3.488 64.992 3.504 65.456C3.536 66.128 3.656 66.76 3.864 67.352C4.072 67.928 4.416 68.4 4.896 68.768C5.376 69.12 6.024 69.296 6.84 69.296ZM21.0174 71.24C19.3694 71.24 18.0574 70.736 17.0814 69.728C16.1054 68.704 15.5694 67.312 15.4734 65.552C15.4574 65.344 15.4494 65.08 15.4494 64.76C15.4494 64.424 15.4574 64.152 15.4734 63.944C15.5374 62.808 15.8014 61.816 16.2654 60.968C16.7294 60.104 17.3614 59.44 18.1614 58.976C18.9774 58.512 19.9294 58.28 21.0174 58.28C22.2334 58.28 23.2494 58.536 24.0654 59.048C24.8974 59.56 25.5294 60.288 25.9614 61.232C26.3934 62.176 26.6094 63.28 26.6094 64.544V64.952C26.6094 65.128 26.5534 65.264 26.4414 65.36C26.3454 65.456 26.2174 65.504 26.0574 65.504H17.7534C17.7534 65.52 17.7534 65.552 17.7534 65.6C17.7534 65.648 17.7534 65.688 17.7534 65.72C17.7854 66.376 17.9294 66.992 18.1854 67.568C18.4414 68.128 18.8094 68.584 19.2894 68.936C19.7694 69.288 20.3454 69.464 21.0174 69.464C21.5934 69.464 22.0734 69.376 22.4574 69.2C22.8414 69.024 23.1534 68.832 23.3934 68.624C23.6334 68.4 23.7934 68.232 23.8734 68.12C24.0174 67.912 24.1294 67.792 24.2094 67.76C24.2894 67.712 24.4174 67.688 24.5934 67.688H25.7454C25.9054 67.688 26.0334 67.736 26.1294 67.832C26.2414 67.912 26.2894 68.032 26.2734 68.192C26.2574 68.432 26.1294 68.728 25.8894 69.08C25.6494 69.416 25.3054 69.752 24.8574 70.088C24.4094 70.424 23.8654 70.704 23.2254 70.928C22.5854 71.136 21.8494 71.24 21.0174 71.24ZM17.7534 63.848H24.3294V63.776C24.3294 63.056 24.1934 62.416 23.9214 61.856C23.6654 61.296 23.2894 60.856 22.7934 60.536C22.2974 60.2 21.7054 60.032 21.0174 60.032C20.3294 60.032 19.7374 60.2 19.2414 60.536C18.7614 60.856 18.3934 61.296 18.1374 61.856C17.8814 62.416 17.7534 63.056 17.7534 63.776V63.848ZM33.4013 71C33.1613 71 32.9693 70.944 32.8253 70.832C32.6973 70.72 32.5933 70.576 32.5133 70.4L28.0732 59.264C28.0413 59.184 28.0253 59.104 28.0253 59.024C28.0253 58.88 28.0733 58.76 28.1693 58.664C28.2653 58.568 28.3853 58.52 28.5293 58.52H29.6813C29.8573 58.52 29.9933 58.568 30.0893 58.664C30.1853 58.76 30.2413 58.848 30.2573 58.928L33.9293 68.384L37.5773 58.928C37.6093 58.848 37.6653 58.76 37.7453 58.664C37.8413 58.568 37.9773 58.52 38.1533 58.52H39.3293C39.4573 58.52 39.5693 58.568 39.6653 58.664C39.7773 58.76 39.8333 58.88 39.8333 59.024C39.8333 59.104 39.8173 59.184 39.7853 59.264L35.3213 70.4C35.2573 70.576 35.1533 70.72 35.0093 70.832C34.8813 70.944 34.6893 71 34.4333 71H33.4013ZM41.4413 71C41.2813 71 41.1453 70.952 41.0333 70.856C40.9373 70.744 40.8893 70.608 40.8893 70.448V68.72C40.8893 68.56 40.9373 68.432 41.0333 68.336C41.1453 68.224 41.2813 68.168 41.4413 68.168H43.1693C43.3293 68.168 43.4573 68.224 43.5533 68.336C43.6653 68.432 43.7213 68.56 43.7213 68.72V70.448C43.7213 70.608 43.6653 70.744 43.5533 70.856C43.4573 70.952 43.3293 71 43.1693 71H41.4413ZM47.6561 71C47.4961 71 47.3601 70.952 47.2481 70.856C47.1521 70.744 47.1041 70.608 47.1041 70.448V59.072C47.1041 58.912 47.1521 58.784 47.2481 58.688C47.3601 58.576 47.4961 58.52 47.6561 58.52H48.8081C48.9681 58.52 49.0961 58.576 49.1921 58.688C49.2881 58.784 49.3361 58.912 49.3361 59.072V70.448C49.3361 70.608 49.2881 70.744 49.1921 70.856C49.0961 70.952 48.9681 71 48.8081 71H47.6561ZM47.4641 56.192C47.3041 56.192 47.1681 56.144 47.0561 56.048C46.9601 55.936 46.9121 55.8 46.9121 55.64V54.344C46.9121 54.184 46.9601 54.056 47.0561 53.96C47.1681 53.848 47.3041 53.792 47.4641 53.792H48.9761C49.1361 53.792 49.2641 53.848 49.3601 53.96C49.4721 54.056 49.5281 54.184 49.5281 54.344V55.64C49.5281 55.8 49.4721 55.936 49.3601 56.048C49.2641 56.144 49.1361 56.192 48.9761 56.192H47.4641ZM53.703 71C53.543 71 53.407 70.952 53.295 70.856C53.199 70.744 53.151 70.608 53.151 70.448V59.072C53.151 58.912 53.199 58.784 53.295 58.688C53.407 58.576 53.543 58.52 53.703 58.52H54.831C54.991 58.52 55.119 58.576 55.215 58.688C55.327 58.784 55.383 58.912 55.383 59.072V60.128C55.799 59.584 56.319 59.144 56.943 58.808C57.583 58.456 58.399 58.28 59.391 58.28C60.431 58.28 61.311 58.512 62.031 58.976C62.767 59.424 63.319 60.056 63.687 60.872C64.055 61.672 64.239 62.608 64.239 63.68V70.448C64.239 70.608 64.191 70.744 64.095 70.856C63.999 70.952 63.871 71 63.711 71H62.511C62.351 71 62.215 70.952 62.103 70.856C62.007 70.744 61.959 70.608 61.959 70.448V63.8C61.959 62.68 61.687 61.808 61.143 61.184C60.599 60.544 59.799 60.224 58.743 60.224C57.751 60.224 56.951 60.544 56.343 61.184C55.751 61.808 55.455 62.68 55.455 63.8V70.448C55.455 70.608 55.399 70.744 55.287 70.856C55.191 70.952 55.063 71 54.903 71H53.703Z" fill="black"/>
</svg>
