<svg width="483" height="173" viewBox="0 0 483 173" fill="none" xmlns="http://www.w3.org/2000/svg">
<g id="Group 3">
<path id="RG WEb" d="M203.388 55H191.48V64.88C191.48 65.9893 191.151 66.8733 190.492 67.532C189.833 68.1907 188.949 68.52 187.84 68.52C186.731 68.52 185.847 68.1907 185.188 67.532C184.529 66.8733 184.2 65.9893 184.2 64.88V38.62C184.2 35.5347 184.685 33.6107 185.656 32.848C186.627 32.016 188.568 31.6 191.48 31.6H207.08C210.755 31.6 213.701 32.6573 215.92 34.772C218.173 36.9213 219.3 39.764 219.3 43.3C219.3 45.9347 218.607 48.1707 217.22 50.008C215.833 51.8107 213.909 53.1453 211.448 54.012L217.844 61.76C218.988 63.1467 219.56 64.3253 219.56 65.296C219.56 66.1973 219.213 66.96 218.52 67.584C217.827 68.208 217.012 68.52 216.076 68.52C214.724 68.52 213.389 67.7053 212.072 66.076L203.388 55ZM206.56 38.36H192.52C192.035 38.36 191.74 38.464 191.636 38.672C191.532 38.8453 191.48 39.2613 191.48 39.92V48.24H206.56C210.2 48.24 212.02 46.5933 212.02 43.3C212.02 40.0067 210.2 38.36 206.56 38.36ZM247.93 37.58C243.944 37.58 240.668 38.672 238.102 40.856C235.572 43.04 234.306 46.0213 234.306 49.8C234.306 53.5787 235.572 56.56 238.102 58.744C240.668 60.928 243.944 62.02 247.93 62.02C251.397 62.02 254.24 61.3093 256.458 59.888C258.642 58.432 259.786 56.6293 259.89 54.48C259.925 53.6133 259.422 53.1107 258.382 52.972C258.174 52.9373 257.464 52.92 256.25 52.92H247.15C244.724 52.92 243.51 51.7933 243.51 49.54C243.51 47.2867 244.724 46.16 247.15 46.16H257.03C260.566 46.16 263.114 46.7667 264.674 47.98C266.269 49.1587 267.014 51.0653 266.91 53.7C266.806 56.7853 265.766 59.5067 263.79 61.864C260.046 66.3013 254.76 68.52 247.93 68.52C241.794 68.52 236.75 66.856 232.798 63.528C228.846 60.1307 226.87 55.5547 226.87 49.8C226.87 44.0107 228.846 39.452 232.798 36.124C236.716 32.7613 241.76 31.08 247.93 31.08C254.136 31.08 259.024 32.536 262.594 35.448C263.426 36.1067 263.964 36.8347 264.206 37.632C264.484 38.4293 264.466 39.14 264.154 39.764C263.877 40.388 263.444 40.908 262.854 41.324C262.3 41.7053 261.589 41.8787 260.722 41.844C259.856 41.7747 259.024 41.4453 258.226 40.856C255.28 38.672 251.848 37.58 247.93 37.58ZM217.428 112.344L210.408 94.04L203.388 112.344C202.313 115.187 201.204 117.093 200.06 118.064C198.985 119.035 197.668 119.52 196.108 119.52C194.513 119.52 193.179 119.035 192.104 118.064C190.96 117.059 189.989 115.152 189.192 112.344L181.964 87.644C181.721 86.812 181.6 86.136 181.6 85.616C181.6 84.576 181.947 83.7267 182.64 83.068C183.368 82.4093 184.269 82.08 185.344 82.08C186.211 82.08 186.904 82.34 187.424 82.86C187.944 83.3453 188.377 84.1947 188.724 85.408L196.368 111.408L206.508 86.084C207.305 84.108 208.605 83.12 210.408 83.12C212.211 83.12 213.511 84.108 214.308 86.084L224.448 111.408L232.092 85.408C232.439 84.1947 232.872 83.3453 233.392 82.86C233.912 82.34 234.605 82.08 235.472 82.08C236.547 82.08 237.431 82.4093 238.124 83.068C238.852 83.7267 239.216 84.576 239.216 85.616C239.216 86.136 239.095 86.812 238.852 87.644L231.624 112.344C230.827 115.152 229.856 117.059 228.712 118.064C227.637 119.035 226.303 119.52 224.708 119.52C223.148 119.52 221.813 119.035 220.704 118.064C219.595 117.059 218.503 115.152 217.428 112.344ZM273.016 103.92H254.296V110.68C254.296 111.131 254.296 111.443 254.296 111.616C254.331 111.755 254.418 111.893 254.556 112.032C254.73 112.171 254.99 112.24 255.336 112.24H277.696C280.123 112.24 281.336 113.367 281.336 115.62C281.336 117.873 280.123 119 277.696 119H254.296C251.419 119 249.478 118.601 248.472 117.804C247.502 116.972 247.016 115.031 247.016 111.98V89.62C247.016 86.5347 247.502 84.6107 248.472 83.848C249.443 83.016 251.384 82.6 254.296 82.6H277.696C280.123 82.6 281.336 83.7267 281.336 85.98C281.336 88.2333 280.123 89.36 277.696 89.36H255.336C254.851 89.36 254.556 89.464 254.452 89.672C254.348 89.8453 254.296 90.2613 254.296 90.92V97.16H273.016C275.443 97.16 276.656 98.2867 276.656 100.54C276.656 102.793 275.443 103.92 273.016 103.92ZM290.688 111.98V89.62C290.688 86.5347 291.174 84.6107 292.144 83.848C293.115 83.016 295.056 82.6 297.968 82.6H315.908C319.618 82.6 322.582 83.5187 324.8 85.356C327.019 87.1587 328.128 89.62 328.128 92.74C328.128 94.6467 327.66 96.3107 326.724 97.732C325.788 99.1187 324.627 100.037 323.24 100.488V100.592C325.043 101.181 326.482 102.204 327.556 103.66C328.631 105.116 329.168 106.815 329.168 108.756C329.168 112.015 328.007 114.545 325.684 116.348C323.362 118.116 320.19 119 316.168 119H297.968C295.091 119 293.15 118.601 292.144 117.804C291.174 116.972 290.688 115.031 290.688 111.98ZM316.168 103.92H297.968V110.68C297.968 111.131 297.968 111.443 297.968 111.616C298.003 111.755 298.09 111.893 298.228 112.032C298.402 112.171 298.662 112.24 299.008 112.24H316.168C319.808 112.24 321.628 110.853 321.628 108.08C321.628 105.307 319.808 103.92 316.168 103.92ZM315.388 89.36H299.008C298.523 89.36 298.228 89.464 298.124 89.672C298.02 89.8453 297.968 90.2613 297.968 90.92V97.16H315.648C319.115 97.16 320.848 95.86 320.848 93.26C320.848 90.66 319.028 89.36 315.388 89.36Z" fill="#7048FF"/>
<g id="icons8-visual-studio-2019 1" clip-path="url(#clip0_6_12)">
<path id="Vector" d="M106.118 37.4687L116.75 42.7843C117.34 43.1781 117.931 43.7687 117.931 44.5562V105.784C117.931 106.572 117.537 107.162 116.75 107.556L106.118 112.675V37.4687Z" fill="url(#paint0_linear_6_12)"/>
<path id="Vector_2" d="M119.9 34.5156L99.0309 24.475H98.8341C98.8341 24.475 98.8341 24.475 98.6372 24.475C96.6684 23.6875 94.3059 24.2781 92.9278 25.8531L61.0341 60.8968L41.3466 44.95C38.9841 42.9812 35.8341 42.7843 33.2747 44.3593L25.7934 48.8875C25.7934 48.8875 25.7934 48.8875 25.5966 49.0843C24.2184 49.8718 23.2341 51.25 23.2341 53.0218V97.3187C23.2341 98.8937 24.0216 100.272 25.2028 101.059L33.0778 105.784C34.2591 106.375 35.4403 106.769 36.6216 106.769C38.1966 106.769 39.7716 106.178 41.1497 105.194L60.6403 89.4437L92.7309 124.487C93.7153 125.669 95.0934 126.259 96.6684 126.259C97.2591 126.259 97.8497 126.062 98.6372 125.866L119.703 115.628C123.247 114.25 125.609 110.706 125.609 106.966V43.375C125.806 39.4375 123.443 35.8937 119.9 34.5156ZM35.2434 47.9031C36.4247 47.3125 37.8028 47.3125 38.7872 48.2968L58.2778 64.0468L50.0091 73.1031L31.3059 50.2656L35.2434 47.9031ZM47.2528 76.0562L41.1497 82.9468V68.575L47.2528 76.0562ZM27.7622 97.7125C27.5653 97.7125 27.3684 97.5156 27.3684 97.3187V52.825C27.3684 52.4312 27.5653 52.4312 27.7622 52.4312C27.7622 52.4312 27.7622 52.4312 27.9591 52.4312C28.1559 52.4312 28.1559 52.4312 28.3528 52.6281L37.4091 63.6531V87.0812L28.1559 97.3187C27.9591 97.7125 27.9591 97.7125 27.7622 97.7125ZM38.7872 102.044C37.8028 102.831 36.4247 103.028 35.2434 102.241L31.3059 99.8781L96.0778 28.4125C96.6684 27.8218 97.2591 28.0187 97.4559 28.0187C97.6528 28.0187 98.2434 28.4125 98.2434 29.2V54.4L38.7872 102.044ZM98.2434 90.8218L78.7528 75.0718L98.2434 59.3218V90.8218ZM63.9872 86.8843L75.6028 77.6312L98.2434 95.9406V121.141C98.2434 121.928 97.6528 122.125 97.4559 122.322C97.2591 122.322 96.6684 122.519 96.0778 121.928L63.9872 86.8843ZM121.868 106.769C121.868 109.131 120.49 111.1 118.522 111.887L102.181 119.762V30.3812C102.181 30.3812 118.325 38.2562 118.522 38.2562C120.49 39.0437 121.868 41.0125 121.868 43.375V106.769Z" fill="url(#paint1_linear_6_12)"/>
</g>
<path id="Vector 1" d="M152 29L153 119" stroke="#7048FF" stroke-width="5"/>
</g>
<defs>
<linearGradient id="paint0_linear_6_12" x1="112.025" y1="40.5557" x2="112.025" y2="105.521" gradientUnits="userSpaceOnUse">
<stop stop-color="#6DC7FF"/>
<stop offset="1" stop-color="#E6ABFF"/>
</linearGradient>
<linearGradient id="paint1_linear_6_12" x1="74.6184" y1="26.6918" x2="74.6184" y2="121.865" gradientUnits="userSpaceOnUse">
<stop stop-color="#1A6DFF"/>
<stop offset="1" stop-color="#C822FF"/>
</linearGradient>
<clipPath id="clip0_6_12">
<rect width="126" height="126" fill="white"/>
</clipPath>
</defs>
</svg>
